ply
format ascii 1.0
comment Created in Blender version 4.4.3
element vertex 385
property float x
property float y
property float z
property float s
property float t
element face 384
property list uchar uint vertex_indices
end_header
-0.13023229 0.13103276 0.007970873 0.67197317 0.33676052
-0.102322854 0.15301807 0.008313767 0.7043959 0.3233499
-0.102322854 0.15301807 0.007970873 0.7043959 0.33676052
0.14699017 0.09821569 0.007970873 0.25081047 0.47421467
0.12500486 0.12500486 0.008313767 0.23739986 0.4423768
0.12500486 0.12500486 0.007970873 0.25081047 0.44237682
-0.17678358 0 0.007970873 0.558526 0.3367605
-0.18417628 0.0060279015 -0.00033681246 0.5671573 0.661675
-0.17678358 0 -0.00033681246 0.558526 0.661675
-0.09821569 0.14699017 -0.00033681246 0.06466874 0.2872561
-0.13023229 0.13103276 -0.00033681246 0.08724229 0.31115437
-0.102322854 0.15301807 -0.00033681246 0.060463484 0.29247588
0.06765215 0.16332673 -0.00033681246 0.006055569 0.14575136
0.03593101 0.17941463 -0.00033681246 0.0003699476 0.17793825
0.07048121 0.16935462 -0.00033681246 8.548683e-09 0.1448715
0.102322854 0.15301807 0.007970873 0.38722336 0.6750856
0.13023229 0.13103276 0.008313767 0.41919014 0.661675
0.13023229 0.13103276 0.007970873 0.41919014 0.6750856
0.14699017 0.09821569 -0.00033681246 0.04214938 0.05861319
0.17015669 0.07368005 -0.00033681246 0.0575459 0.03169563
0.16332673 0.06765215 -0.00033681246 0.06466874 0.03609383
-0.14699017 0.09821569 0.007970873 0.2642211 0.40973607
-0.16332673 0.06765215 0.008313767 0.2508105 0.38031784
-0.16332673 0.06765215 0.007970873 0.26422113 0.38031784
0.17678358 0 0.007970873 0.008765692 0.34474465
0.17338672 -0.034488764 -0.00033681246 0.031276353 0.6696591
0.17678358 0 -0.00033681246 0.008765692 0.6696591
0.17338672 -0.034488764 0.007970873 0.031276353 0.34474465
0.16332673 -0.06765215 -0.00033681246 0.0577495 0.6696591
0.16332673 -0.06765215 0.007970873 0.0577495 0.34474465
0.14699017 -0.09821569 -0.00033681246 0.08716774 0.6696591
0.14699017 -0.09821569 0.007970873 0.08716774 0.34474465
0.12500486 -0.12500486 -0.00033681246 0.11840059 0.6696591
0.12500486 -0.12500486 0.007970873 0.11840059 0.34474465
0.09821569 -0.14699017 -0.00033681246 0.15024775 0.6696591
0.09821569 -0.14699017 0.007970873 0.15024775 0.34474465
0.06765215 -0.16332673 -0.00033681246 0.1814854 0.6696591
0.06765215 -0.16332673 0.007970873 0.1814854 0.34474465
0.034488764 -0.17338672 -0.00033681246 0.21091308 0.6696591
0.034488764 -0.17338672 0.007970873 0.21091308 0.34474465
0 -0.17678358 -0.00033681246 0.23739988 0.6696591
0 -0.17678358 0.007970873 0.3294054 0.3367605
-0.034488764 -0.17338672 -0.00033681246 0.35246274 0.661675
0 -0.17678358 -0.00033681246 0.3294054 0.661675
-0.034488764 -0.17338672 0.007970873 0.35246274 0.3367605
-0.06765215 -0.16332673 -0.00033681246 0.3793628 0.661675
-0.06765215 -0.16332673 0.007970873 0.3793628 0.3367605
-0.09821569 -0.14699017 -0.00033681246 0.40907186 0.661675
-0.09821569 -0.14699017 0.007970873 0.40907186 0.3367605
-0.12500486 -0.12500486 -0.00033681246 0.4404482 0.661675
-0.12500486 -0.12500486 0.007970873 0.4404482 0.3367605
-0.14699017 -0.09821569 -0.00033681246 0.47228608 0.661675
-0.14699017 -0.09821569 0.007970873 0.47228608 0.3367605
-0.16332673 -0.06765215 -0.00033681246 0.50336194 0.661675
-0.16332673 -0.06765215 0.007970873 0.50336194 0.3367605
-0.17338672 -0.034488764 -0.00033681246 0.5324816 0.661675
-0.17338672 -0.034488764 0.007970873 0.5324816 0.3367605
-0.12500486 0.12500486 -0.00033681246 0.0911487 0.30494943
-0.15313697 0.10424359 -0.00033681246 0.116910495 0.32415026
0.18063737 0.040516663 0.007970873 0.5126739 0.6750856
0.18417628 0.0060279015 0.008313767 0.5390327 0.661675
0.18417628 0.0060279015 0.007970873 0.5390327 0.6750856
-0.034488764 0.17338672 0.007970873 0.2642211 0.5334814
-0.06765215 0.16332673 0.008313767 0.2508105 0.5040537
-0.06765215 0.16332673 0.007970873 0.2642211 0.5040537
-0.15313697 0.10424359 0.007970873 0.6411684 0.33676052
-0.13023229 0.13103276 0.008313767 0.67197317 0.3233499
-0.034488764 0.17338672 -0.00033681246 0.024456033 0.23825675
-6.251764e-10 0.18281148 -0.00033681246 0.0069677527 0.2104418
0 0.17678358 -0.00033681246 0.01226864 0.20883378
0.034488764 0.17338672 -0.00033681246 0.006055569 0.17759854
-0.06765215 -0.16332673 0.007970873 0.5676622 0.018400472
0.16332673 -0.06765215 0.007970873 0.6343548 0.23825674
0.06765215 0.16332673 0.007970873 0.41449857 0.30494943
0.12500486 0.12500486 -0.00033681246 0.024456037 0.08509315
0.15313697 0.10424359 -0.00033681246 0.03520878 0.054815754
0.09821569 0.14699017 0.008313767 0.23739986 0.41100046
0.09821569 0.14699017 0.007970873 0.25081047 0.41100046
0.034488764 -0.17338672 -0.00033681246 0.31100497 0.08509316
-0.17338672 -0.034488764 -0.00033681246 0.2443123 0.30494943
-6.251764e-10 0.18281148 0.007970873 0.7988887 0.33676052
0.03593101 0.17941463 -0.00033681246 0.82542115 0.6616749
-6.251764e-10 0.18281148 -0.00033681246 0.7988887 0.6616749
0.03593101 0.17941463 0.007970873 0.32940543 0.6750856
0.07048121 0.16935462 -0.00033681246 0.35690677 1
0.03593101 0.17941463 -0.00033681246 0.32940543 1
0.07048121 0.16935462 0.007970873 0.35690677 0.6750856
0.102322854 0.15301807 -0.00033681246 0.38722336 1
0.13023229 0.13103276 -0.00033681246 0.41919014 1
0.15313697 0.10424359 -0.00033681246 0.45157868 1
0.15313697 0.10424359 0.007970873 0.45157868 0.6750856
0.17015669 0.07368005 -0.00033681246 0.48314428 1
0.17015669 0.07368005 0.007970873 0.48314428 0.6750856
0.18063737 0.040516663 -0.00033681246 0.5126739 1
0.18417628 0.0060279015 -0.00033681246 0.5390327 1
-0.18417628 0.0060279015 0.007970873 0.5671573 0.3367605
-0.18063737 0.040516663 -0.00033681246 0.58904034 0.661675
-0.18063737 0.040516663 0.007970873 0.5890403 0.33676052
-0.17015669 0.07368005 -0.00033681246 0.6131654 0.6616749
-0.18063737 0.040516663 -0.00033681246 0.5890403 0.6616749
-0.17015669 0.07368005 0.007970873 0.6131654 0.33676052
-0.15313697 0.10424359 -0.00033681246 0.6411684 0.6616749
-0.13023229 0.13103276 -0.00033681246 0.67197317 0.6616749
-0.102322854 0.15301807 -0.00033681246 0.7043959 0.6616749
-0.07048121 0.16935462 -0.00033681246 0.7371905 0.6616749
-0.07048121 0.16935462 0.007970873 0.7371905 0.33676052
-0.03593101 0.17941463 -0.00033681246 0.76909685 0.6616749
-0.03593101 0.17941463 0.007970873 0.76909685 0.33676052
0.18063737 0.040516663 -0.00033681246 0.08391365 0.013632327
0.17338672 0.034488764 -0.00033681246 0.09114871 0.018400487
-0.17338672 0.034488764 -0.00033681246 0.18365408 0.3233499
-0.18417628 0.0060279015 -0.00033681246 0.21156053 0.3252459
-0.18063737 0.040516663 -0.00033681246 0.18028739 0.33133405
0.102322854 0.15301807 0.008313767 0.38722336 0.661675
-0.17338672 0.034488764 0.008313767 0.2508105 0.35384467
-0.17338672 0.034488764 0.007970873 0.26422113 0.35384467
0.09821569 0.14699017 -0.00033681246 0.012268646 0.11451611
0.102322854 0.15301807 -0.00033681246 0.0058721406 0.11251231
-0.07048121 0.16935462 -0.00033681246 0.037603185 0.26883256
-0.06765215 0.16332673 -0.00033681246 0.04214938 0.2647367
-6.251764e-10 0.18281148 0.008313767 0.7988887 0.3233499
0.17678358 0 0.007970873 0.25081047 0.5604546
0.17338672 0.034488764 0.008313767 0.23739985 0.53441024
0.17338672 0.034488764 0.007970873 0.25081047 0.53441024
0.18417628 0.0060279015 -0.00033681246 0.11329871 0.0013200269
0.17678358 0 -0.00033681246 0.12057167 0.0062130927
-0.16332673 0.06765215 -0.00033681246 0.1518069 0.3233499
-0.17015669 0.07368005 -0.00033681246 0.14832799 0.3309641
0.18063737 0.040516663 0.008313767 0.5126739 0.661675
0.13023229 0.13103276 -0.00033681246 0.01776069 0.082104206
-0.09821569 0.14699017 0.008313767 0.2508105 0.47281608
-0.09821569 0.14699017 0.007970873 0.2642211 0.47281608
-0.03593101 0.17941463 -0.00033681246 0.01953988 0.24113305
0.18417628 0.0060279015 0.007970873 0 0.34474465
-0.15313697 0.10424359 0.008313767 0.6411684 0.3233499
0.06765215 0.16332673 0.008313767 0.23739986 0.3812914
0.06765215 0.16332673 0.007970873 0.25081047 0.3812914
-0.14699017 0.09821569 -0.00033681246 0.12057165 0.31713682
-0.09821569 0.14699017 0.008313767 0.9604994 0.5828571
-0.13023229 0.13103276 0.008313767 0.9458352 0.61227906
-0.12500486 0.12500486 0.008313767 0.94029576 0.6074753
0.06765215 0.16332673 0.008313767 0.9755121 0.430431
0.03593101 0.17941463 0.008313767 0.99029624 0.4595815
0.034488764 0.17338672 0.008313767 0.9847568 0.46090686
0.14699017 0.09821569 0.008313767 0.9156776 0.35752246
0.17015669 0.07368005 0.008313767 0.8931303 0.33623332
0.15313697 0.10424359 0.008313767 0.92121696 0.3518738
-0.15313697 0.10424359 0.008313767 0.92121696 0.6333276
-0.14699017 0.09821569 0.008313767 0.91567755 0.62767893
-0.034488764 0.17338672 0.008313767 0.9847568 0.5242945
-6.251764e-10 0.18281148 0.008313767 0.9934178 0.49260068
-0.03593101 0.17941463 0.008313767 0.99029624 0.52561986
0 0.17678358 0.008313767 0.9878784 0.49260068
0.12500486 0.12500486 0.008313767 0.94029576 0.37772608
0.13023229 0.13103276 0.008313767 0.9458352 0.37292227
-0.17015669 0.07368005 0.008313767 0.89313024 0.64896804
-0.16332673 0.06765215 0.008313767 0.8875908 0.64269155
0.16332673 0.06765215 0.008313767 0.8875909 0.34250978
0.18063737 0.040516663 0.008313767 0.86265445 0.32660195
-0.17338672 0.034488764 0.008313767 0.857115 0.6519363
-0.18417628 0.0060279015 0.008313767 0.8309606 0.66185147
-0.17678358 0 0.008313767 0.82542115 0.6550579
0.09821569 0.14699017 0.008313767 0.9604994 0.4023443
0.07048121 0.16935462 0.008313767 0.98105145 0.4278312
-0.07048121 0.16935462 0.008313767 0.98105145 0.5573702
-0.102322854 0.15301807 0.008313767 0.9660388 0.5866314
0.17338672 0.034488764 0.008313767 0.85711503 0.33326504
0.18417628 0.0060279015 0.008313767 0.8309606 0.32334986
-0.18063737 0.040516663 0.008313767 0.8626544 0.6585994
0.102322854 0.15301807 0.008313767 0.9660388 0.39856997
-0.06765215 0.16332673 0.008313767 0.9755121 0.55477035
0.034488764 0.17338672 0.007970873 0.25081047 0.35439134
0 0.17678358 0.008313767 0.23739986 0.33133402
0 0.17678358 0.007970873 0.25081047 0.33133402
0 0.17678358 0.007970873 0.2642211 0.5599682
-0.034488764 0.17338672 0.008313767 0.25081047 0.5334814
-0.18417628 0.0060279015 0.008313767 0.5671573 0.32334986
0.17678358 0 0.008313767 0.008765692 0.33133405
-0.18063737 0.040516663 0.008313767 0.58904034 0.32334986
-0.18063737 0.040516663 0.007970873 0.58904034 0.3367605
-0.12500486 0.12500486 0.007970873 0.2642211 0.44096893
-0.14699017 0.09821569 0.008313767 0.2508105 0.40973607
0.15313697 0.10424359 0.008313767 0.45157868 0.661675
0.03593101 0.17941463 0.008313767 0.82542115 0.3233499
0.03593101 0.17941463 0.007970873 0.82542115 0.33676052
0.16332673 0.06765215 0.007970873 0.25081047 0.50529057
0.14699017 0.09821569 0.008313767 0.23739985 0.47421467
-0.07048121 0.16935462 0.008313767 0.7371905 0.3233499
0.034488764 0.17338672 0.008313767 0.23739986 0.35439134
-0.17015669 0.07368005 0.008313767 0.6131654 0.3233499
-0.12500486 0.12500486 0.008313767 0.2508105 0.44096893
0.17015669 0.07368005 0.008313767 0.48314428 0.661675
0.16332673 0.06765215 0.008313767 0.23739985 0.50529057
-0.03593101 0.17941463 0.008313767 0.76909685 0.3233499
-0.17678358 0 0.008313767 0.2508105 0.33133402
-0.17678358 0 0.007970873 0.26422113 0.33133402
0.07048121 0.16935462 0.008313767 0.35690677 0.661675
0 -0.17678358 0.007970873 0.23739988 0.34474465
0.034488764 0.17338672 0.007970873 0.38801858 0.28725606
0 0.17678358 0.007970873 0.36549923 0.2647367
-0.034488764 0.17338672 0.007970873 0.3478059 0.23825674
-0.06765215 0.16332673 0.007970873 0.3356185 0.20883378
-0.09821569 0.14699017 0.007970873 0.32940543 0.17759854
-0.12500486 0.12500486 0.007970873 0.32940543 0.14575134
-0.14699017 0.09821569 0.007970873 0.3356185 0.1145161
-0.16332673 0.06765215 0.007970873 0.3478059 0.08509315
-0.17338672 0.034488764 0.007970873 0.36549923 0.058613177
-0.17678358 0 0.007970873 0.38801858 0.036093816
-0.17338672 -0.034488764 0.007970873 0.41449857 0.018400472
-0.16332673 -0.06765215 0.007970873 0.44392154 0.0062130797
-0.14699017 -0.09821569 0.007970873 0.47515678 2.9128815e-09
-0.12500486 -0.12500486 0.007970873 0.50700396 5.5020957e-09
-0.09821569 -0.14699017 0.007970873 0.5382392 0.006213081
-0.034488764 -0.17338672 0.007970873 0.59414214 0.036093824
0.06765215 -0.16332673 0.007970873 0.6465422 0.11451612
0 -0.17678358 0.007970873 0.6166615 0.05861318
0.034488764 -0.17338672 0.007970873 0.6343548 0.08509315
0.09821569 -0.14699017 0.007970873 0.6527553 0.14575136
0.12500486 -0.12500486 0.007970873 0.6527553 0.17759854
0.14699017 -0.09821569 0.007970873 0.6465422 0.20883378
0.17338672 -0.034488764 0.007970873 0.6166615 0.2647367
0.16332673 0.06765215 0.007970873 0.5382392 0.31713682
0.17678358 0 0.007970873 0.59414214 0.28725606
0.17338672 0.034488764 0.007970873 0.5676622 0.30494943
0.14699017 0.09821569 0.007970873 0.50700396 0.3233499
0.12500486 0.12500486 0.007970873 0.47515675 0.3233499
0.09821569 0.14699017 0.007970873 0.4439215 0.3171368
0.17338672 -0.034488764 -0.00033681246 0.15180692 2.153745e-08
0.16332673 -0.06765215 -0.00033681246 0.1836541 2.1572156e-08
0.14699017 -0.09821569 -0.00033681246 0.21488935 0.0062130988
0.12500486 -0.12500486 -0.00033681246 0.2443123 0.01840049
0.09821569 -0.14699017 -0.00033681246 0.27079228 0.036093835
0.06765215 -0.16332673 -0.00033681246 0.29331163 0.058613192
0 -0.17678358 -0.00033681246 0.32319236 0.114516124
-0.034488764 -0.17338672 -0.00033681246 0.32940543 0.14575137
-0.06765215 -0.16332673 -0.00033681246 0.32940543 0.17759857
-0.09821569 -0.14699017 -0.00033681246 0.32319236 0.2088338
-0.12500486 -0.12500486 -0.00033681246 0.31100497 0.23825677
-0.14699017 -0.09821569 -0.00033681246 0.29331163 0.2647367
-0.16332673 -0.06765215 -0.00033681246 0.27079228 0.2872561
-0.17678358 0 -0.00033681246 0.21488933 0.31713682
0.17678358 0 0.008313767 0.23739985 0.5604546
0.18417628 0.0060279015 -0.00033681246 0 0.6696591
0.17678358 0 0.008313767 0.8254212 0.33014345
0 0.17678358 0.008313767 0.25081047 0.5599682
-0.17678358 0 0.008313767 0.558526 0.32334986
0.18417628 0.0060279015 0.008313767 0 0.33133405
-0.18063737 0.040516663 0.008313767 0.5890403 0.3233499
0.03593101 0.17941463 0.008313767 0.32940543 0.661675
0 0.14730336 0.009051888 0.2971706 0.33133405
0.0024961617 0.14705752 0.0059295273 0.2990091 0.4534499
0 0.14730336 0.0059295273 0.2971706 0.4534499
0.0024961617 0.14705752 0.009051888 0.2642211 0.45344988
0.0048963977 0.1463294 0.0059295273 0.2661522 0.5755657
0.0024961617 0.14705752 0.0059295273 0.2642211 0.5755657
0.0048963977 0.1463294 0.009051888 0.2661522 0.45344988
0.007108467 0.14514704 0.0059295273 0.2682917 0.5755657
0.007108467 0.14514704 0.009051888 0.2682917 0.45344988
0.009047362 0.14355582 0.0059295273 0.2705574 0.5755657
0.009047362 0.14355582 0.009051888 0.2705574 0.45344988
0.010638572 0.14161693 0.0059295273 0.27286223 0.5755657
0.010638572 0.14161693 0.009051888 0.27286223 0.45344988
0.011820948 0.13940486 0.0059295273 0.2751176 0.5755657
0.011820948 0.13940486 0.009051888 0.2751176 0.45344988
0.012549051 0.13700463 0.0059295273 0.27723685 0.5755657
0.012549051 0.13700463 0.009051888 0.27723685 0.45344988
0.012794903 0.13450846 0.0059295273 0.2791385 0.5755657
0.012794903 0.13450846 0.009051888 0.2990091 0.33133405
0.012549051 0.13201231 0.0059295273 0.30063835 0.4534499
0.012794903 0.13450846 0.0059295273 0.2990091 0.4534499
0.012549051 0.13201231 0.009051888 0.30063835 0.33133405
0.011820948 0.12961206 0.0059295273 0.30255437 0.4534499
0.011820948 0.12961206 0.009051888 0.30255437 0.33133405
0.010638572 0.1274 0.0059295273 0.30468357 0.4534499
0.010638572 0.1274 0.009051888 0.30468357 0.33133405
0.009047362 0.1254611 0.0059295273 0.30694407 0.4534499
0.009047362 0.1254611 0.009051888 0.30694407 0.33133405
0.007108467 0.12386989 0.0059295273 0.30924904 0.4534499
0.007108467 0.12386989 0.009051888 0.30924904 0.33133405
0.0048963977 0.12268752 0.0059295273 0.3115099 0.4534499
0.0048963977 0.12268752 0.009051888 0.3115099 0.33133405
0.0024961617 0.12195941 0.0059295273 0.31363976 0.4534499
0.0024961617 0.12195941 0.009051888 0.31363976 0.33133405
0 0.121713564 0.0059295273 0.31555676 0.4534499
0 0.121713564 0.009051888 0.2642211 0.33133402
-0.0024961617 0.12195941 0.0059295273 0.2658899 0.45344988
0 0.121713564 0.0059295273 0.2642211 0.45344988
-0.0024961617 0.12195941 0.009051888 0.2658899 0.33133402
-0.0048963977 0.12268752 0.0059295273 0.26783684 0.45344988
-0.0048963977 0.12268752 0.009051888 0.26783684 0.33133402
-0.007108467 0.12386989 0.0059295273 0.26998705 0.45344988
-0.007108467 0.12386989 0.009051888 0.26998705 0.33133402
-0.009047362 0.1254611 0.0059295273 0.27225795 0.45344988
-0.009047362 0.1254611 0.009051888 0.27225795 0.33133402
-0.010638572 0.1274 0.0059295273 0.27456227 0.45344988
-0.010638572 0.1274 0.009051888 0.27456227 0.33133402
-0.011820948 0.12961206 0.0059295273 0.2768114 0.45344988
-0.011820948 0.12961206 0.009051888 0.2768114 0.33133402
-0.012549051 0.13201231 0.0059295273 0.27891898 0.45344988
-0.012549051 0.13201231 0.009051888 0.27891898 0.33133402
-0.012794903 0.13450846 0.0059295273 0.28080395 0.45344988
-0.012794903 0.13450846 0.009051888 0.28080395 0.33133402
-0.012549051 0.13700463 0.0059295273 0.28239393 0.45344988
-0.012549051 0.13700463 0.009051888 0.28239393 0.33133405
-0.011820948 0.13940486 0.0059295273 0.28411615 0.4534499
-0.012549051 0.13700463 0.0059295273 0.28239393 0.4534499
-0.011820948 0.13940486 0.009051888 0.28411615 0.33133405
-0.010638572 0.14161693 0.0059295273 0.28610414 0.4534499
-0.010638572 0.14161693 0.009051888 0.28610414 0.33133405
-0.009047362 0.14355582 0.0059295273 0.28828153 0.4534499
-0.009047362 0.14355582 0.009051888 0.28828153 0.33133405
-0.007108467 0.14514704 0.0059295273 0.2905646 0.4534499
-0.007108467 0.14514704 0.009051888 0.2905646 0.33133405
-0.0048963977 0.1463294 0.0059295273 0.29286563 0.4534499
-0.0048963977 0.12268752 0.009051888 0.299929 0.45769206
0.011820948 0.12961206 0.009051888 0.29829913 0.47424033
0.0048963977 0.1463294 0.009051888 0.28175086 0.47261047
-0.0048963977 0.1463294 0.009051888 0.29286563 0.33133405
-0.0024961617 0.14705752 0.0059295273 0.29509622 0.4534499
-0.0024961617 0.14705752 0.009051888 0.29509622 0.33133405
0.0024961617 0.12195941 0.0059295273 0.32461238 0.45960858
-0.012549051 0.13201231 0.0059295273 0.31978542 0.4755209
-0.0024961617 0.14705752 0.0059295273 0.3038731 0.47069398
0.0024961617 0.14705752 0.009051888 0.2990091 0.33133405
0.012794903 0.13450846 0.009051888 0.2791385 0.45344988
0 0.121713564 0.009051888 0.31555676 0.33133405
-0.012549051 0.13700463 0.009051888 0.28239393 0.33133402
0.0024961617 0.14705752 0.009051888 0.28047028 0.47069395
0 0.14730336 0.009051888 0.27958822 0.46856445
-0.0024961617 0.14705752 0.009051888 0.27913854 0.46630377
-0.0048963977 0.1463294 0.009051888 0.27913854 0.46399876
-0.007108467 0.14514704 0.009051888 0.2795882 0.4617381
-0.009047362 0.14355582 0.009051888 0.28047028 0.45960858
-0.010638572 0.14161693 0.009051888 0.28175086 0.45769206
-0.011820948 0.13940486 0.009051888 0.28338072 0.4560622
-0.012549051 0.13700463 0.009051888 0.28529724 0.45478162
-0.012794903 0.13450846 0.009051888 0.28742674 0.45389953
-0.012549051 0.13201231 0.009051888 0.28968742 0.45344988
-0.011820948 0.12961206 0.009051888 0.29199243 0.45344988
-0.010638572 0.1274 0.009051888 0.29425308 0.45389953
-0.009047362 0.1254611 0.009051888 0.2963826 0.45478162
-0.007108467 0.12386989 0.009051888 0.29829913 0.4560622
-0.0024961617 0.12195941 0.009051888 0.30120957 0.45960855
0.0048963977 0.12268752 0.009051888 0.30254132 0.46630374
0 0.121713564 0.009051888 0.30209166 0.46173808
0.0024961617 0.12195941 0.009051888 0.30254132 0.46399876
0.007108467 0.12386989 0.009051888 0.30209166 0.46856442
0.009047362 0.1254611 0.009051888 0.30120957 0.47069395
0.010638572 0.1274 0.009051888 0.299929 0.47261047
0.012549051 0.13201231 0.009051888 0.2963826 0.4755209
0.011820948 0.13940486 0.009051888 0.28968745 0.47685266
0.012794903 0.13450846 0.009051888 0.2942531 0.47640297
0.012549051 0.13700463 0.009051888 0.29199243 0.47685266
0.010638572 0.14161693 0.009051888 0.28742677 0.476403
0.009047362 0.14355582 0.009051888 0.28529724 0.4755209
0.007108467 0.14514704 0.009051888 0.28338072 0.47424033
0 0.14730336 0.0059295273 0.302991 0.46856445
0.0024961617 0.14705752 0.0059295273 0.30254135 0.46630377
0.0048963977 0.1463294 0.0059295273 0.30254135 0.4639988
0.007108467 0.14514704 0.0059295273 0.302991 0.4617381
0.009047362 0.14355582 0.0059295273 0.3038731 0.45960858
0.010638572 0.14161693 0.0059295273 0.30515367 0.4576921
0.011820948 0.13940486 0.0059295273 0.30678353 0.45606223
0.012549051 0.13700463 0.0059295273 0.30870005 0.45478165
0.012794903 0.13450846 0.0059295273 0.31082955 0.45389956
0.012549051 0.13201231 0.0059295273 0.31309023 0.45344988
0.011820948 0.12961206 0.0059295273 0.3153952 0.45344988
0.010638572 0.1274 0.0059295273 0.3176559 0.45389956
0.009047362 0.1254611 0.0059295273 0.31978542 0.45478162
0.007108467 0.12386989 0.0059295273 0.32170194 0.4560622
0.0048963977 0.12268752 0.0059295273 0.3233318 0.45769206
0 0.121713564 0.0059295273 0.32549444 0.4617381
-0.0024961617 0.12195941 0.0059295273 0.32594413 0.4639988
-0.0048963977 0.12268752 0.0059295273 0.32594413 0.46630377
-0.007108467 0.12386989 0.0059295273 0.32549447 0.46856445
-0.009047362 0.1254611 0.0059295273 0.32461238 0.47069398
-0.010638572 0.1274 0.0059295273 0.3233318 0.47261047
-0.011820948 0.12961206 0.0059295273 0.32170194 0.47424033
-0.012794903 0.13450846 0.0059295273 0.31765592 0.476403
-0.012549051 0.13700463 0.0059295273 0.31539524 0.4768527
-0.011820948 0.13940486 0.0059295273 0.31309023 0.4768527
-0.010638572 0.14161693 0.0059295273 0.31082958 0.476403
-0.009047362 0.14355582 0.0059295273 0.30870005 0.47552094
-0.007108467 0.14514704 0.0059295273 0.30678353 0.47424036
-0.0048963977 0.1463294 0.0059295273 0.30515367 0.4726105
3 0 1 2
3 3 4 5
3 6 7 8
3 9 10 11
3 12 13 14
3 15 16 17
3 18 19 20
3 21 22 23
3 24 25 26
3 27 28 25
3 29 30 28
3 31 32 30
3 33 34 32
3 35 36 34
3 37 38 36
3 39 40 38
3 41 42 43
3 44 45 42
3 46 47 45
3 48 49 47
3 50 51 49
3 52 53 51
3 54 55 53
3 56 8 55
3 57 58 10
3 59 60 61
3 62 63 64
3 65 66 0
3 67 68 69
3 70 68 13
3 71 72 73
3 74 75 18
3 5 76 77
3 78 79 67
3 80 81 82
3 83 84 85
3 86 87 84
3 15 88 87
3 17 89 88
3 90 91 89
3 92 93 91
3 59 94 93
3 95 96 7
3 97 98 99
3 100 101 98
3 65 102 101
3 0 103 102
3 2 104 103
3 105 106 104
3 107 82 106
3 20 108 109
3 110 111 112
3 86 113 15
3 23 114 115
3 116 14 117
3 9 118 119
3 107 120 80
3 121 122 123
3 109 124 125
3 126 112 127
3 92 128 59
3 116 129 74
3 64 130 131
3 119 132 67
3 26 133 24
3 100 134 65
3 77 135 136
3 137 127 58
3 138 139 140
3 141 142 143
3 144 145 146
3 140 147 148
3 149 150 151
3 143 150 152
3 153 146 154
3 148 155 156
3 157 158 145
3 159 160 161
3 162 163 141
3 138 164 165
3 166 167 158
3 156 168 159
3 162 154 169
3 170 151 164
3 171 172 173
3 174 175 62
3 6 176 95
3 133 177 24
3 95 178 179
3 180 181 21
3 17 182 90
3 80 183 184
3 185 186 3
3 2 187 105
3 136 188 171
3 97 189 100
3 131 190 180
3 90 191 92
3 123 192 185
3 105 193 107
3 115 194 195
3 83 196 86
3 0 66 1
3 3 186 4
3 6 95 7
3 9 57 10
3 12 70 13
3 15 113 16
3 18 75 19
3 21 181 22
3 24 27 25
3 27 29 28
3 29 31 30
3 31 33 32
3 33 35 34
3 35 37 36
3 37 39 38
3 39 197 40
3 41 44 42
3 44 46 45
3 46 48 47
3 48 50 49
3 50 52 51
3 52 54 53
3 54 56 55
3 56 6 8
3 57 137 58
3 59 128 60
3 62 175 63
3 65 134 66
3 67 132 68
3 70 69 68
3 73 198 199
3 199 200 73
3 200 201 73
3 201 202 203
3 203 204 205
3 205 206 207
3 207 208 205
3 208 209 205
3 209 210 211
3 211 212 71
3 71 213 214
3 213 215 214
3 215 216 214
3 214 217 218
3 218 219 72
3 72 220 221
3 220 222 221
3 222 223 221
3 221 224 225
3 225 226 73
3 201 203 73
3 203 205 73
3 209 211 205
3 211 71 205
3 214 218 71
3 218 72 71
3 221 225 72
3 225 73 72
3 73 205 71
3 74 129 75
3 5 4 76
3 67 69 70
3 70 12 116
3 116 74 18
3 18 20 109
3 109 125 227
3 227 228 229
3 229 230 231
3 231 232 78
3 78 233 234
3 234 235 236
3 236 237 238
3 238 239 79
3 79 240 110
3 110 126 137
3 137 57 9
3 9 119 67
3 67 70 109
3 70 116 109
3 116 18 109
3 109 227 78
3 227 229 78
3 229 231 78
3 78 234 79
3 234 236 79
3 236 238 79
3 79 110 67
3 110 137 67
3 137 9 67
3 67 109 78
3 80 184 81
3 83 86 84
3 86 15 87
3 15 17 88
3 17 90 89
3 90 92 91
3 92 59 93
3 59 61 94
3 95 179 96
3 97 100 98
3 100 65 101
3 65 0 102
3 0 2 103
3 2 105 104
3 105 107 106
3 107 80 82
3 20 19 108
3 110 240 111
3 86 196 113
3 23 22 114
3 116 12 14
3 9 11 118
3 107 193 120
3 121 241 122
3 109 108 124
3 126 110 112
3 92 191 128
3 116 117 129
3 64 63 130
3 119 118 132
3 26 242 133
3 100 189 134
3 77 76 135
3 137 126 127
3 138 165 139
3 141 163 142
3 144 157 145
3 140 139 147
3 149 152 150
3 143 142 150
3 153 144 146
3 148 147 155
3 157 166 158
3 159 168 160
3 162 169 163
3 138 170 164
3 166 243 167
3 156 155 168
3 162 153 154
3 170 149 151
3 171 188 172
3 174 244 175
3 6 245 176
3 133 246 177
3 95 176 178
3 180 190 181
3 17 16 182
3 80 120 183
3 185 192 186
3 2 1 187
3 136 135 188
3 97 247 189
3 131 130 190
3 90 182 191
3 123 122 192
3 105 187 193
3 115 114 194
3 83 248 196
3 249 250 251
3 252 253 254
3 255 256 253
3 257 258 256
3 259 260 258
3 261 262 260
3 263 264 262
3 265 266 264
3 267 268 269
3 270 271 268
3 272 273 271
3 274 275 273
3 276 277 275
3 278 279 277
3 280 281 279
3 282 283 281
3 284 285 286
3 287 288 285
3 289 290 288
3 291 292 290
3 293 294 292
3 295 296 294
3 297 298 296
3 299 300 298
3 301 302 300
3 303 304 305
3 306 307 304
3 308 309 307
3 310 311 309
3 312 313 311
3 314 315 316
3 317 318 313
3 319 251 318
3 320 321 322
3 249 323 250
3 252 255 253
3 255 257 256
3 257 259 258
3 259 261 260
3 261 263 262
3 263 265 264
3 265 324 266
3 267 270 268
3 270 272 271
3 272 274 273
3 274 276 275
3 276 278 277
3 278 280 279
3 280 282 281
3 282 325 283
3 284 287 285
3 287 289 288
3 289 291 290
3 291 293 292
3 293 295 294
3 295 297 296
3 297 299 298
3 299 301 300
3 301 326 302
3 303 306 304
3 306 308 307
3 308 310 309
3 310 312 311
3 312 317 313
3 316 327 328
3 328 329 316
3 329 330 316
3 330 331 332
3 332 333 334
3 334 335 336
3 336 337 334
3 337 338 334
3 338 339 340
3 340 341 314
3 314 342 343
3 342 344 343
3 344 345 343
3 343 346 347
3 347 348 315
3 315 349 350
3 349 351 350
3 351 352 350
3 350 353 354
3 354 355 316
3 330 332 316
3 332 334 316
3 338 340 334
3 340 314 334
3 343 347 314
3 347 315 314
3 350 354 315
3 354 316 315
3 316 334 314
3 317 319 318
3 319 249 251
3 322 356 357
3 357 358 359
3 359 360 361
3 361 362 363
3 363 364 365
3 365 366 367
3 367 368 369
3 369 370 320
3 320 371 372
3 372 373 374
3 374 375 376
3 376 377 321
3 321 378 379
3 379 380 381
3 381 382 383
3 383 384 322
3 322 357 363
3 357 359 363
3 359 361 363
3 363 365 320
3 365 367 320
3 367 369 320
3 320 372 321
3 372 374 321
3 374 376 321
3 321 379 322
3 379 381 322
3 381 383 322
3 322 363 320
