ply
format ascii 1.0
comment Created in Blender version 4.4.3
element vertex 352
property float x
property float y
property float z
property float s
property float t
element face 306
property list uchar uint vertex_indices
end_header
0.2862359 0.11714951 0.77383065 0.45247167 0.10872595
0.2967513 -0.022840334 0.7750027 0.46260086 0.186011
0.30237064 -0.032435834 0.5761896 0.36693275 0.2067238
0.27333993 0.049880616 0.8774916 0.50872546 0.1402801
0.25935447 0.06713506 0.5046097 0.32892704 0.16305992
0.26047745 -0.08480698 0.48802534 0.33226985 0.25000364
0.23397452 0.19945876 0.4887432 0.31367525 0.09361987
0.25404623 0.22333623 0.57322645 0.3507434 0.07013276
0.27074462 -0.12535676 0.8128982 0.49101976 0.24486037
0.26603374 -0.21892256 0.5793099 0.38587078 0.31741646
0.2614028 0.20028824 0.7275838 0.4262243 0.0694365
0.23573275 -0.2337576 0.62519646 0.411939 0.3267912
0.21274193 0.04685682 0.93063354 0.54022664 0.14713009
0.21596797 -0.048540704 0.9797977 0.5708182 0.19647755
0.19333464 -0.15019406 0.9699954 0.5758579 0.2581931
0.20904881 -0.26104292 0.7891938 0.49556044 0.3330203
0.18408123 -0.26896727 0.8638585 0.5344877 0.33531964
-0.07790713 -0.15626355 0.6363789 0.20505361 0.8958118
-0.12711489 -0.19033754 0.5168881 0.16007903 0.9390166
-0.12622318 -0.09311413 0.54875606 0.16007903 0.88085556
-0.19722295 0.11008446 0.9352861 0.74897623 0.83901244
-0.14996684 0.22659855 0.9613497 0.7837643 0.9062971
-0.19088005 0.2693696 0.8800487 0.74897623 0.9333654
0.15228689 0.21280153 0.9711014 0.24415354 0.2973145
0.21274193 0.04685682 0.93063354 0.27691358 0.19851756
0.27333993 0.049880616 0.8774916 0.31367525 0.20017171
-0.25112888 0.010412219 0.8653958 0.18406206 0.4895817
-0.15224662 -0.04537515 0.98195404 0.23840459 0.46172997
-0.25764003 0.115484744 0.8874766 0.2102744 0.54128665
-0.09359611 -0.15374401 1.0146643 0.08956886 0.08465511
-0.15224662 -0.04537515 0.98195404 0.05763396 0.1510049
-0.24862207 -0.12644199 0.8872381 1.8239518e-08 0.10739068
-0.25112888 0.010412219 0.8653958 0.0018480325 0.18908252
-0.19722295 0.11008446 0.9352861 0.035048958 0.24528278
-0.25764003 0.115484744 0.8874766 1.8303338e-08 0.2509938
-0.19088005 0.2693696 0.8800487 0.04311252 0.3408537
0.14148127 -0.12281204 0.973207 0.23028795 0.09857769
0.09656808 -0.29261005 0.9219525 0.20060812 0.0001656718
0.18408123 -0.26896727 0.8638585 0.25386214 0.013541357
-0.0818735 -0.29903284 0.94100934 0.53180456 0.5699275
-0.25251272 -0.21602872 0.77855426 0.45071602 0.6795249
-0.1906445 -0.33404058 0.79096967 0.455287 0.606581
0.09427988 -0.1439437 0.99617565 0.20149685 0.086593196
0.010653358 -0.19699584 1.0252936 0.15030502 0.056377985
-0.025473328 -0.08068702 1.0233808 0.13147444 0.12619309
-0.060804978 -0.014425921 1.0128934 0.11212862 0.16652599
0.09039758 0.14989565 0.99744403 0.20567758 0.2608256
0.27074462 -0.12535676 0.8128982 0.30916625 0.0978795
-0.068350784 0.14123477 0.9972462 0.11131647 0.25933507
-0.012287078 0.20217766 1.008312 0.14576732 0.2939135
-0.05210239 0.29619375 0.9569965 0.12494973 0.35176188
-0.0818735 -0.29903284 0.94100934 0.09434352 -4.449925e-09
-0.09599775 0.24820384 0.95391166 0.09789177 0.32439455
0.057232197 0.26351634 0.9541349 0.18912609 0.3299537
-0.08673583 0.028174374 0.9673367 0.29195717 0.7324947
-0.068350784 0.14123477 0.9972462 0.31090325 0.7980336
-0.09599775 0.24820384 0.95391166 0.29195717 0.8533652
-0.19722295 0.11008446 0.9352861 0.48352936 0.78394157
-0.08673583 0.028174374 0.9673367 0.5590294 0.7524555
-0.14996684 0.22659855 0.9613497 0.49315712 0.8571563
0.022619853 -0.068241455 1.0008485 0.16059624 0.13299818
0.050632652 -0.26805454 0.93174475 0.17376411 0.015543337
0.07059927 0.0006156937 0.9668445 0.19105998 0.17351386
0.19333464 -0.15019406 0.9699954 0.26048756 0.081234105
0.005673255 -0.010637854 0.9714312 0.15223128 0.1682235
-0.09599775 0.24820384 0.95391166 0.52101016 0.8777663
0.21596797 -0.048540704 0.9797977 0.27602547 0.14073965
0.005673255 -0.010637854 0.9714312 0.9186356 0.331404
-0.068350784 0.14123477 0.9972462 0.9186356 0.4312806
-0.08673583 0.028174374 0.9673367 0.87979525 0.37649232
-0.031963445 0.085505426 0.95044124 0.13232689 0.22656907
0.19748199 -0.33222777 0.68580693 0.4521475 0.38342127
-0.2110023 -0.27962145 0.6848734 0.40396827 0.63650906
-0.28075704 -0.115888745 0.608712 0.3689331 0.730366
-0.18084002 -0.22603093 0.50817657 0.3188194 0.6430042
-0.1759735 -0.29530197 0.571542 0.34851462 0.6145754
-0.2597305 -0.040352646 0.4921335 0.31367525 0.74931866
-0.09359611 -0.15374401 1.0146643 0.57106924 0.63017654
0.18394661 -0.14442746 0.42535594 0.80515325 0.58653855
0.26603374 -0.21892256 0.5793099 0.7489762 0.55321705
0.16781606 -0.23657574 0.49822193 0.8032526 0.5307947
-0.10672347 -0.30916125 0.50148433 0.3149955 0.57763726
0.066759184 -0.34462327 0.49408686 0.37281945 0.4264364
0.16781606 -0.23657574 0.49822193 0.35725528 0.34932142
0.08313778 -0.4176672 0.6848734 0.46879116 0.4495894
-0.25029615 0.09003501 0.5081105 0.9397592 0.95583284
-0.30593506 0.10444568 0.67446715 0.9397592 0.86902505
-0.28772658 0.12820075 0.58025867 0.95655644 0.911282
0.09427988 -0.1439437 0.99617565 0.8210503 0.3481686
0.010653358 -0.19699584 1.0252936 0.8548462 0.38247487
0.050632652 -0.26805454 0.93174475 0.8210503 0.43216383
-0.25829202 -0.2150571 0.5800608 0.353025 0.6826088
0.054090228 -0.2682817 0.49112177 0.8651713 0.49801356
-0.3034829 -0.11727677 0.6848734 0.4059467 0.7402262
0.066759184 -0.34462327 0.49408686 0.31367525 0.48476234
0.08313778 -0.4176672 0.6848734 0.4061517 0.44958946
-0.0084761875 -0.35608506 0.5133213 0.3215274 0.5148914
-0.24862207 -0.12644199 0.8872381 0.5062383 0.7115593
0.09656808 -0.29261005 0.9219525 0.5724386 0.35761058
0.054359306 -0.39384773 0.73964405 0.49608982 0.43618336
-0.03638405 -0.3992905 0.75120705 0.43703896 0.51126665
-0.078121655 -0.3498389 0.7748251 0.44901246 0.549067
0.054359306 -0.39384773 0.73964405 0.43310264 0.47175583
0.09656808 -0.29261005 0.9219525 0.5257782 0.490613
0.050632652 -0.26805454 0.93174475 0.53031975 0.52093315
0.26603374 -0.21892256 0.5793099 0.5590293 0.89947253
0.23573275 -0.2337576 0.62519646 0.5757598 0.883388
0.16781606 -0.23657574 0.49822193 0.5757598 0.95385784
-0.07790713 -0.15626355 0.6363789 0.6333567 0.09190689
-0.12622318 -0.09311413 0.54875606 0.6690087 0.12256641
-0.029620526 -0.10040169 0.58731616 0.61229527 0.1306791
0.18394661 -0.14442746 0.42535594 0.31367525 0.30071256
0.032924872 0.16666302 0.58055794 0.7242541 0.90250325
0.07780452 0.10223283 0.53147495 0.7384605 0.95177
0.057156462 0.053271163 0.61560714 0.6975376 0.95177
-0.3034829 -0.11727677 0.6848734 0.07494253 0.4375457
-0.2866246 -0.064365104 0.80766207 0.14230773 0.45122176
-0.30593506 0.10444568 0.67446715 0.10440789 0.5570793
-0.27674857 0.13680023 0.7954852 0.16876598 0.5623798
-0.28075704 -0.115888745 0.608712 0.04126118 0.45367825
-0.25029615 0.09003501 0.5081105 0.028621005 0.5841409
-0.25829202 -0.2150571 0.5800608 0.014213287 0.40912765
-0.2597305 -0.040352646 0.4921335 -4.492124e-08 0.51497746
-0.2866246 -0.064365104 0.80766207 0.46781594 0.75245553
-0.24862207 -0.12644199 0.8872381 0.17320496 0.41375372
-0.28772658 0.12820075 0.58025867 0.06535375 0.58692175
-0.25427094 0.22558106 0.58206993 0.08417781 0.64508694
-0.26252756 0.22863431 0.6848378 0.13226454 0.63022894
0.05511648 -0.14221925 0.4956242 0.24820183 0.5416053
0.016205471 -0.17646989 0.5772652 0.28652003 0.51277876
0.02473124 -0.123144336 0.5466606 0.2725928 0.5448665
0.054090228 -0.2682817 0.49112177 0.24398163 0.4713421
0.07685385 0.035260025 0.49703977 0.2523837 0.64480907
0.091470204 -0.057597406 0.4705855 0.2384046 0.59671557
0.024260152 -0.022329697 0.6080829 0.3043402 0.5995457
0.13416258 0.17022645 0.46050042 0.2384046 0.7324948
-0.2597305 -0.040352646 0.4921335 0.7528783 0.13611163
-0.25029615 0.09003501 0.5081105 0.764329 0.21285892
-0.20038176 0.08395542 0.4460175 0.7342552 0.21597794
0.25935447 0.06713506 0.5046097 0.7886749 0.7185804
0.26047745 -0.08480698 0.48802534 0.76867115 0.630622
0.13416258 0.17022645 0.46050042 0.5590294 0.8301329
0.1521943 0.29809412 0.50164664 0.57232624 0.7524555
0.1564089 0.06808353 0.48311394 0.57232624 0.88338816
-0.18084002 -0.22603093 0.50817657 0.68327963 0.038604308
-0.18279167 -0.12213485 0.46419868 0.69756657 0.09872249
-0.28772658 0.12820075 0.58025867 0.9175047 0.77965146
-0.25427094 0.22558106 0.58206993 0.94506884 0.8342257
-0.18046142 0.23305833 0.5297499 0.9175047 0.869025
0.17108415 0.0048466073 0.45241907 0.8316899 0.6714276
-0.1759735 -0.29530197 0.571542 0.6975375 0.93404394
-0.25829202 -0.2150571 0.5800608 0.6657139 0.87361485
-0.2597305 -0.040352646 0.4921335 0.6975375 0.7746843
0.23397452 0.19945876 0.4887432 0.82007796 0.7921888
0.1564089 0.06808353 0.48311394 0.84839505 0.7061576
0.066759184 -0.34462327 0.49408686 0.8481632 0.45531672
-0.0084761875 -0.35608506 0.5133213 0.89046913 0.439072
0.1521943 0.29809412 0.50164664 0.8800978 0.8390123
0.091470204 -0.057597406 0.4705855 0.87006855 0.62505245
0.13416258 0.17022645 0.46050042 0.87411624 0.7626745
0.07685385 0.035260025 0.49703977 0.89046913 0.67698914
-0.15520775 0.1108386 0.5442861 0.7121049 0.23706777
-0.18046142 0.23305833 0.5297499 0.7424326 0.30470493
-0.12569739 0.17534703 0.5222053 0.7031979 0.27834135
0.05511648 -0.14221925 0.4956242 0.8805787 0.5712686
-0.12711489 -0.19033754 0.5168881 0.656795 0.066197805
-0.08008591 0.21578157 0.5794265 0.682307 0.30747747
-0.16626987 0.26513147 0.60012215 0.7387504 0.32489735
-0.023475382 0.33554015 0.6057083 0.6651001 0.38411614
0.016205471 -0.17646989 0.5772652 0.57585794 0.09252956
-0.020564787 -0.2897162 0.60427254 0.58271146 0.022051075
-0.05887009 -0.21229364 0.59086275 0.6148294 0.06203285
0.032924872 0.16666302 0.58055794 0.61046916 0.29358134
0.07780019 0.32909605 0.57589525 0.18181624 0.77163815
0.1521943 0.29809412 0.50164664 0.20965196 0.81103635
0.13416258 0.17022645 0.46050042 0.16007905 0.8693953
-0.10672347 -0.30916125 0.50148433 0.6295519 -5.2625757e-09
0.02473124 -0.123144336 0.5466606 0.5776221 0.12464124
-0.04662184 0.08883372 0.5987218 0.6466375 0.23814325
0.01168378 0.05366906 0.5790968 0.6081903 0.22534591
0.07780019 0.32909605 0.57589525 0.6053939 0.39354458
0.057156462 0.053271163 0.61560714 0.58199114 0.23086242
0.024260152 -0.022329697 0.6080829 0.59125906 0.18281898
0.07780452 0.10223283 0.53147495 0.57585794 0.2621838
-0.0866475 -0.004475041 0.5855658 0.65772015 0.17893362
-0.05887009 -0.21229364 0.59086275 0.9175047 0.8690251
-0.07790713 -0.15626355 0.6363789 0.93975925 0.8956203
-0.029620526 -0.10040169 0.58731616 0.9175047 0.93739176
0.07780452 0.10223283 0.53147495 0.31345063 0.48945805
0.13416258 0.17022645 0.46050042 0.30434027 0.541504
0.024260152 -0.022329697 0.6080829 0.30434027 0.40912768
0.07780019 0.32909605 0.57589525 0.6242503 0.77468425
0.13416258 0.17022645 0.46050042 0.66571385 0.85891306
0.07780452 0.10223283 0.53147495 0.6242503 0.9025123
-0.020564787 -0.2897162 0.60427254 0.29682288 0.44161186
-0.06345484 0.3599307 0.5940642 0.6913545 0.3931348
-0.12622318 -0.09311413 0.54875606 0.74833536 0.8317743
-0.18279167 -0.12213485 0.46419868 0.7309739 0.87465435
-0.0866475 -0.004475041 0.5855658 0.7309739 0.77468425
0.22006896 0.31717563 0.68489873 0.40069047 0.01338412
0.18853135 0.26133418 0.87579685 0.4998867 0.03430268
0.15228689 0.21280153 0.9711014 0.55287623 0.05960757
-0.19088005 0.2693696 0.8800487 0.23634464 0.6373472
0.15134472 0.3846441 0.58035 0.23634441 0.7672795
0.25404623 0.22333623 0.57322645 0.23634441 0.88085574
-0.20968571 0.29747364 0.73231757 0.16972238 0.67021495
0.121691465 0.3409854 0.873113 0.4988235 1.2406822e-08
-0.25029615 0.09003501 0.5081105 0.85052395 0.93372476
-0.28772658 0.12820075 0.58025867 0.8180522 0.916329
-0.18046142 0.23305833 0.5297499 0.85052395 0.83901256
0.121691465 0.3409854 0.873113 0.23840462 0.76459736
0.15228689 0.21280153 0.9711014 0.29195714 0.7324949
0.18853135 0.26133418 0.87579685 0.28240192 0.7834389
0.1521943 0.29809412 0.50164664 0.27995893 0.94627094
0.25404623 0.22333623 0.57322645 0.2799589 0.8688873
0.23397452 0.19945876 0.4887432 0.31059572 0.8964481
0.15134472 0.3846441 0.58035 0.46381158 0.8299586
0.11237483 0.40047187 0.66995156 0.41929445 0.8526711
0.25404623 0.22333623 0.57322645 0.4638116 0.7524554
0.22006896 0.31717563 0.68489873 0.41190243 0.7804125
0.0030107177 0.39194727 0.8774966 0.16087992 0.40912762
0.121691465 0.3409854 0.873113 0.23021741 0.37630293
0.2614028 0.20028824 0.7275838 0.29195717 0.86888725
0.121691465 0.3409854 0.873113 0.31746903 0.83671474
-0.19088005 0.2693696 0.8800487 0.46381164 0.8778034
-0.10812831 0.34457788 0.84478647 0.50040895 0.93419945
-0.13302033 0.33926302 0.70658374 0.17054322 0.71091765
-0.10812831 0.34457788 0.84478647 0.23840459 0.6984541
-0.06605424 0.41451028 0.68339694 0.17696649 0.76727945
-0.06345484 0.3599307 0.5940642 0.12669012 0.7515714
-0.16626987 0.26513147 0.60012215 0.10617533 0.68040293
0.005265226 0.39102778 0.7909594 0.5590294 0.9791242
-0.09599775 0.24820384 0.95391166 0.69753754 0.7746842
-0.05210239 0.29619375 0.9569965 0.7213439 0.8015061
0.0030107177 0.39194727 0.8774966 0.7309739 0.8762594
0.005265226 0.39102778 0.7909594 0.35614505 0.9117195
-0.10812831 0.34457788 0.84478647 0.32418782 0.971673
-0.06605424 0.41451028 0.68339694 0.40760458 0.95799583
-0.06605424 0.41451028 0.68339694 0.7004186 0.42414525
0.11237483 0.40047187 0.66995156 0.5951053 0.439072
0.0030107177 0.39194727 0.8774966 0.31367528 0.911442
-0.20968571 0.29747364 0.73231757 0.7837644 0.9056776
-0.19088005 0.2693696 0.8800487 0.8180522 0.8390124
-0.13302033 0.33926302 0.70658374 0.81805223 0.9316632
-0.25427094 0.22558106 0.58206993 0.5812542 0.8014155
-0.16626987 0.26513147 0.60012215 0.60755974 0.8409859
-0.18046142 0.23305833 0.5297499 0.5758579 0.8511124
-0.06345484 0.3599307 0.5940642 0.62425035 0.9444174
-0.06605424 0.41451028 0.68339694 0.627074 0.9025124
-0.023475382 0.33554015 0.6057083 0.6510375 0.9444174
-0.26252756 0.22863431 0.6848378 0.6242503 0.77468425
0.005265226 0.39102778 0.7909594 0.69753754 0.90250325
0.07780019 0.32909605 0.57589525 0.20505369 0.94685817
0.11237483 0.40047187 0.66995156 0.20505369 0.88085574
0.15134472 0.3846441 0.58035 0.23509333 0.91166174
-0.08008591 0.21578157 0.5794265 0.6242503 0.894788
-0.20038176 0.08395542 0.4460175 0.61624986 0.94695824
-0.25029615 0.09003501 0.5081105 0.57585794 0.93301505
-0.15520775 0.1108386 0.5442861 0.61624986 0.89478797
0.005673255 -0.010637854 0.9714312 0.9175047 0.7796515
-0.08673583 0.028174374 0.9673367 0.9110599 0.83753455
-0.060804978 -0.014425921 1.0128934 0.8904692 0.81413585
-0.19722295 0.11008446 0.9352861 0.9175048 0.9129606
0.005673255 -0.010637854 0.9714312 0.9609989 0.40808016
-0.031963445 0.085505426 0.95044124 0.94240284 0.36307317
-0.068350784 0.14123477 0.9972462 0.9609989 0.33140397
-0.0866475 -0.004475041 0.5855658 0.2799589 0.8688873
-0.20038176 0.08395542 0.4460175 0.2799589 0.935563
-0.15520775 0.1108386 0.5442861 0.2384046 0.9058959
0.057156462 0.053271163 0.61560714 0.87897027 0.39086434
0.07780452 0.10223283 0.53147495 0.8548462 0.43690673
0.024260152 -0.022329697 0.6080829 0.8548462 0.3481686
-0.0084761875 -0.35608506 0.5133213 0.2514816 0.40912768
-0.05887009 -0.21229364 0.59086275 0.94240296 0.34266263
-0.12711489 -0.19033754 0.5168881 0.91863567 0.39333537
-0.07790713 -0.15626355 0.6363789 0.91863567 0.33140382
-0.0084761875 -0.35608506 0.5133213 0.88994086 0.85864675
-0.10672347 -0.30916125 0.50148433 0.8505239 0.907609
-0.020564787 -0.2897162 0.60427254 0.8505239 0.83901256
0.03541075 -0.035617795 0.65695786 0.8797953 0.0135047715
0.06187583 0.00020343284 0.4610124 0.8316627 0.10116338
0.031360146 0.031482488 0.66257954 0.84454006 4.956009e-08
0.054758992 -0.046449453 0.44592777 0.85661244 0.11563067
0.047507532 0.045687046 0.4407546 0.8069436 0.103157565
0.06401674 -0.022633834 0.3264014 0.8274216 0.16863732
0.042813517 -0.06917356 0.3299875 0.85711914 0.17393488
0.054998707 -0.045686908 0.17207149 0.8229209 0.24524385
0.060466744 -0.00031474628 0.21134195 0.8019037 0.21948867
0.059364762 0.02389037 0.3234277 0.80247635 0.16248873
0.0401805 0.07435026 0.3292711 0.7790748 0.15121593
0.057341464 0.049927667 0.12330759 0.76432896 0.25307208
0.12977134 -0.0063897124 -0.014957962 0.7489762 0.77468425
0.009597586 0.14849201 -0.014330331 0.6618332 0.77468425
0.057341464 0.049927667 0.12330759 0.7050991 0.70572203
0.12977134 -0.0063897124 -0.014957962 0.7652463 0.32917443
-0.011349077 -0.16759916 -0.007008617 0.8797953 0.34816867
0.0011684101 -0.100044206 0.10816057 0.8545926 0.28305766
-0.034356743 0.06281702 0.6599564 0.81536895 0.4148115
-0.08580626 -0.0063900934 0.6599514 0.76432896 0.41792983
-0.011349077 -0.0063900934 0.65630335 0.7885716 0.3809112
0.03541075 -0.035617795 0.65695786 0.7892058 0.34816864
0.031360146 0.031482488 0.66257954 0.8210503 0.37195373
-0.028421791 -0.04465175 0.6457653 0.76432896 0.3770028
-0.08580626 -0.0063900934 0.6599514 0.97049165 -3.426787e-09
-0.08062856 -0.04952371 0.4875073 0.9529434 0.085897096
-0.028421791 -0.04465175 0.6457653 0.9298359 0.0073086065
0.009240098 -0.06343388 0.45165193 0.87480956 0.114649
-0.037107527 -0.06932206 0.4376774 0.92584276 0.11040178
0.010670045 -0.06482403 0.18888015 0.8434245 0.2393822
-0.0676399 -0.07152566 0.33110067 0.939691 0.16324028
0.009240098 -0.06343388 0.45165193 0.90673435 0.10280284
0.03541075 -0.035617795 0.65695786 0.90391976 0.00077805645
-0.1000904 -0.052228726 0.15330437 0.9629958 0.25053903
-0.039265282 -0.06825794 0.17146164 0.9289495 0.24129973
-0.012148287 -0.075076506 0.32518068 0.912956 0.16556728
0.042813517 -0.06917356 0.3299875 0.8899643 0.1623702
0.010670045 -0.06482403 0.18888015 0.9072479 0.23202989
-0.17601556 -0.04916201 -0.009429394 1.0000001 0.33140394
0.0011684101 -0.100044206 0.10816057 0.89882416 0.27279088
-0.011349077 -0.16759916 -0.007008617 0.8797953 0.33140394
-0.034356743 0.06281702 0.6599564 0.9391657 0.43907195
-0.09267913 0.054341216 0.51439184 0.9317897 0.51351255
-0.08580626 -0.0063900934 0.6599514 0.89046925 0.44593278
-0.10115034 -0.00091116567 0.47026178 0.9022734 0.53890026
-0.10115034 -0.00091116567 0.47026178 0.98081553 0.09331144
-0.09595997 -0.027186131 0.33027416 0.9694179 0.16279262
-0.09784431 0.059075605 0.120289765 0.9580421 0.70575106
-0.09587998 0.026005628 0.33497646 0.9267017 0.6029681
-0.069549516 0.07523354 0.33387345 0.9593319 0.5991373
-0.095770635 -0.004072949 0.1670333 0.92060107 0.6867707
-0.09595997 -0.027186131 0.33027416 0.8975545 0.6085749
-0.1000904 -0.052228726 0.15330437 0.893947 0.69667864
-0.15064828 0.08256232 -0.015486982 0.96885145 0.77315426
-0.17601556 -0.04916201 -0.009429394 0.89046925 0.7796515
-0.15064828 0.08256232 -0.015486982 0.16007902 0.8360872
-0.011349077 -0.16759916 -0.007008617 -2.623494e-08 0.7787696
-0.17601556 -0.04916201 -0.009429394 0.11989554 0.76727945
0.009597586 0.14849201 -0.014330331 0.114287876 0.928224
0.12977134 -0.0063897124 -0.014957962 -4.5664947e-08 0.90604365
0.012411429 0.08267885 0.15029158 0.67619354 0.69164383
0.0401805 0.07435026 0.3292711 0.69915885 0.60500044
0.0053871693 0.067950614 0.47154638 0.68429154 0.533425
0.047507532 0.045687046 0.4407546 0.7102708 0.5496424
-0.045334775 0.09405562 0.11112208 0.64003265 0.70851636
-0.013418424 0.09298896 0.3279144 0.66584617 0.6038374
-0.0423105 0.07603314 0.4649272 0.65541434 0.5347088
-0.045334775 0.09405562 0.11112208 0.9885931 0.7054419
-0.09267913 0.054341216 0.51439184 0.63013434 0.507243
-0.034356743 0.06281702 0.6599564 0.6679171 0.43907198
-0.069549516 0.07523354 0.33387345 0.63534606 0.5975539
0.031360146 0.031482488 0.66257954 0.7097358 0.43969774
-0.15064828 0.08256232 -0.015486982 0.5758578 0.7650492
3 0 1 2
3 0 3 1
3 4 2 5
3 6 7 4
3 7 2 4
3 3 8 1
3 2 1 9
3 7 10 2
3 10 0 2
3 1 8 11
3 12 13 8
3 13 14 15
3 15 14 16
3 17 18 19
3 20 21 22
3 23 24 25
3 26 27 28
3 29 30 31
3 31 30 32
3 30 33 34
3 34 33 35
3 36 37 38
3 39 40 41
3 36 42 37
3 43 44 29
3 44 45 30
3 23 46 24
3 25 24 47
3 48 49 50
3 43 29 51
3 52 48 50
3 30 45 33
3 29 44 30
3 53 46 23
3 54 55 56
3 57 58 59
3 60 44 43
3 42 60 43
3 37 42 61
3 62 36 63
3 46 62 24
3 62 60 36
3 64 62 46
3 36 60 42
3 59 58 65
3 66 62 63
3 67 68 69
3 49 64 53
3 53 64 46
3 64 45 44
3 24 62 66
3 64 60 62
3 70 64 49
3 48 70 49
3 11 8 71
3 8 15 71
3 72 41 73
3 74 75 76
3 15 16 71
3 8 13 15
3 41 40 73
3 39 77 40
3 78 79 80
3 81 75 74
3 11 71 82
3 83 11 82
3 71 84 82
3 85 86 87
3 88 89 90
3 75 72 91
3 1 11 9
3 78 80 92
3 71 16 84
3 73 40 93
3 61 43 51
3 94 95 96
3 40 77 97
3 16 98 99
3 100 101 75
3 16 99 84
3 102 103 100
3 81 100 75
3 103 104 100
3 100 104 101
3 101 72 75
3 102 100 81
3 101 39 41
3 96 102 81
3 104 39 101
3 95 102 96
3 101 41 72
3 105 106 107
3 63 36 38
3 108 109 110
3 5 2 111
3 112 113 114
3 115 116 117
3 116 118 117
3 119 115 120
3 121 119 122
3 115 117 120
3 119 120 122
3 26 28 118
3 40 123 93
3 116 26 118
3 40 97 123
3 124 26 116
3 125 117 126
3 117 118 127
3 72 73 91
3 128 129 130
3 128 131 129
3 132 133 134
3 133 130 134
3 135 132 134
3 2 9 111
3 136 137 138
3 139 140 78
3 141 142 143
3 144 136 145
3 145 136 138
3 146 147 148
3 149 139 78
3 150 151 152
3 153 139 154
3 80 155 92
3 155 156 92
3 157 153 154
3 154 139 149
3 149 78 158
3 159 154 160
3 161 162 163
3 158 78 164
3 165 144 145
3 166 167 168
3 160 149 158
3 78 92 164
3 169 170 171
3 154 149 160
3 166 168 172
3 173 174 175
3 176 144 165
3 177 169 110
3 178 172 179
3 169 171 110
3 172 168 180
3 179 172 181
3 179 181 182
3 110 109 182
3 172 180 183
3 184 161 182
3 137 162 161
3 161 178 182
3 178 166 172
3 109 184 182
3 185 186 187
3 182 178 179
3 163 166 178
3 188 189 190
3 191 192 193
3 133 128 130
3 161 163 178
3 131 194 129
3 167 195 168
3 145 138 184
3 196 197 198
3 171 176 165
3 170 176 171
3 165 145 109
3 199 10 7
3 117 127 126
3 200 3 10
3 200 201 3
3 28 202 118
3 203 204 174
3 118 202 205
3 206 10 199
3 127 118 205
3 207 208 209
3 10 3 0
3 210 211 212
3 213 214 215
3 50 49 53
3 216 217 218
3 217 219 218
3 220 50 221
3 210 212 222
3 53 23 221
3 50 53 221
3 217 223 219
3 224 59 225
3 226 227 228
3 226 228 229
3 59 65 225
3 230 226 229
3 202 227 226
3 127 205 230
3 225 65 231
3 232 233 234
3 235 223 217
3 236 235 237
3 205 226 230
3 237 235 217
3 238 239 180
3 240 223 235
3 241 242 243
3 168 238 180
3 244 245 246
3 247 248 249
3 173 203 174
3 244 250 245
3 232 234 251
3 252 253 254
3 64 44 60
3 163 162 166
3 246 245 255
3 256 257 258
3 259 260 261
3 261 260 262
3 263 264 265
3 177 110 182
3 266 267 268
3 269 270 271
3 131 272 194
3 273 274 275
3 276 277 278
3 279 280 281
3 282 280 279
3 280 283 281
3 284 280 282
3 285 286 284
3 285 284 282
3 286 287 284
3 288 283 280
3 288 289 283
3 288 290 289
3 287 288 284
3 284 288 280
3 287 290 288
3 291 292 293
3 294 287 286
3 294 290 287
3 295 294 296
3 297 298 299
3 300 301 299
3 301 297 299
3 298 302 299
3 302 300 299
3 303 304 305
3 285 282 306
3 304 307 305
3 308 286 285
3 309 307 304
3 305 310 311
3 312 313 309
3 307 310 305
3 306 282 279
3 314 310 307
3 314 315 310
3 316 315 314
3 313 316 314
3 309 314 307
3 309 313 314
3 296 294 286
3 317 313 312
3 317 318 313
3 296 286 308
3 318 316 313
3 319 318 317
3 320 321 322
3 321 323 322
3 324 304 303
3 325 304 324
3 326 327 328
3 312 309 325
3 325 309 304
3 327 323 321
3 328 327 321
3 327 329 330
3 327 330 323
3 326 329 327
3 329 331 330
3 329 332 333
3 326 332 329
3 329 333 331
3 334 335 336
3 335 334 337
3 335 337 338
3 293 339 340
3 340 341 342
3 339 343 344
3 344 345 341
3 346 326 328
3 345 347 348
3 339 344 340
3 340 344 341
3 349 347 345
3 350 341 348
3 344 349 345
3 344 343 349
3 342 341 350
3 341 345 348
3 292 351 343
3 292 339 293
3 332 326 346
3 292 343 339
