ply
format ascii 1.0
comment Created in Blender version 4.4.3
element vertex 229
property float x
property float y
property float z
property float s
property float t
element face 204
property list uchar uint vertex_indices
end_header
0.13209096 0.41588876 0.8633784 0.0709631 0.55753547
0.02940595 0.3864305 0.7446059 0.14275028 0.6000409
-0.078437254 0.41376585 0.85683507 0.093955085 0.66571033
0.06010679 0.41673222 1.0274508 -4.5291845e-08 0.606874
0.21278775 0.38148147 1.0000217 0.0063066604 0.5237997
-0.18112108 0.3723744 0.891145 0.09602153 0.7187652
-0.14588691 0.37620446 1.0170503 0.03253153 0.7100708
0.22377531 0.33951855 0.7304821 0.1413962 0.49569145
0.31573173 0.32499796 0.861486 0.07414688 0.45693916
0.21278775 0.38148147 1.0000217 0.15445067 0.38640356
0.06010679 0.41673222 1.0274508 0.07898175 0.3886602
0.06158345 0.3446186 1.1675026 0.05131847 0.32557547
-0.14588691 0.37620446 1.0170503 0.40897217 0.29545587
-0.11871198 0.31336176 1.1610126 0.487645 0.31988725
0.06010679 0.41673222 1.0274508 0.4144929 0.3760919
0.13188188 0.1973061 1.2859423 0.070621535 0.23483562
0.06158345 0.3446186 1.1675026 0.49301806 0.3883785
0.11869892 0.30493543 0.6452009 0.1986836 0.5415869
-0.059921466 0.29220507 0.6369742 0.22176935 0.6325006
-0.22282493 0.2815537 0.7137661 0.20283663 0.72168505
-0.28389278 0.2207662 1.0648565 0.4720101 0.21249862
-0.18112108 0.3723744 0.891145 0.36045212 0.25079167
-0.052469302 0.16605997 1.2924645 0.59515417 0.3249899
-0.28527796 0.2847446 0.9184993 0.39406413 0.19589156
0.2483189 0.29937097 1.1272194 0.14594848 0.32315978
0.36721382 0.25149557 1.0259233 0.23149781 0.32784548
0.2616729 0.15662621 0.60901046 0.2339797 0.4559625
0.31573173 0.32499796 0.861486 0.24590515 0.393575
0.36790404 0.1534163 0.7056641 0.17922664 0.40799513
-0.28527796 0.2847446 0.9184993 0.11130495 0.7692385
-0.29859638 0.17211978 0.6105548 0.2817395 0.7465347
-0.052469302 0.16605997 1.2924645 -1.7028068e-09 0.20748001
-0.35597676 0.2384967 0.79904723 0.1840149 0.7941378
0.056501288 0.16313869 0.5450629 0.2817395 0.55766803
0.3100437 0.1959114 1.1876671 0.17108428 0.26479495
0.4232803 0.18870154 0.8689845 0.31054598 0.33292887
-0.3765727 0.17403363 0.9889368 0.4531336 0.14834763
-0.35597676 0.2384967 0.79904723 0.36045212 0.12758027
-0.059921466 0.29220507 0.6369742 0.6860876 0.6505085
-0.22923289 0.08163645 0.5411866 0.8197617 0.6406138
-0.29859638 0.17211978 0.6105548 0.80755347 0.7057611
-0.41482073 0.14436038 0.72771883 0.3630455 0.05928792
-0.42741683 0.13371612 0.8362534 0.40651125 0.07968592
-0.09019226 0.15738888 0.57997274 0.74821633 0.6132727
0.056501288 0.16313869 0.5450629 0.69868493 0.5514561
-0.41482073 0.14436038 0.72771883 0.24306445 0.8135263
0.4232803 0.18870154 0.8689845 0.08955131 0.393575
-0.23048025 0.1598397 1.1990719 0.54841197 0.2432658
0.45059067 0.094145864 1.0167911 0.29489714 0.25901666
-0.38351285 0.04194027 0.62193084 0.8892087 0.7008602
-0.41482073 0.14436038 0.72771883 0.86297226 0.75913507
0.467233 0.019024251 0.85907084 0.8003631 0.31407613
0.36790404 0.1534163 0.7056641 0.91113114 0.3558103
0.4232803 0.18870154 0.8689845 0.8318751 0.38170052
0.2782808 0.0008506377 1.2755368 0.16649716 0.15122308
0.3847923 0.07462983 1.1583564 0.23064393 0.21690069
-0.011389118 0.030655691 0.55375415 0.7759441 0.53863215
0.060281422 0.019952096 1.3574836 0.0517013 0.13072276
-0.41482073 0.14436038 0.72771883 0.12205442 0.87377983
-0.38351285 0.04194027 0.62193084 0.14205226 0.81352633
-0.42741683 0.13371612 0.8362534 0.14205228 0.9278353
-0.21840566 0.0011511942 1.2595088 0.6291767 0.20936552
-0.114948474 0.032372314 0.5343129 0.8053332 0.57834417
0.06962604 0.059967786 0.5116499 0.7359189 0.5096731
-0.065104604 -0.09600503 0.57471836 0.28883442 0.70663136
-0.114948474 0.032372314 0.5343129 0.31488615 0.76997393
-0.09019226 0.15738888 0.57997274 0.2817396 0.8242901
0.32722896 -0.038498715 0.6127145 0.935959 0.2591376
-0.42866302 -0.0074735256 0.99047524 0.515021 0.07160213
0.01546506 0.08191559 -0.007779147 0.1752918 0.8515543
-0.0026895758 0.02452926 -0.059888497 0.14205226 0.8321575
-0.053021707 0.043801785 -0.021358935 0.1714612 0.8135263
-0.114948474 0.032372314 0.5343129 0.17529173 0.8533304
-0.14973715 0.01514905 0.51533145 0.1950659 0.86334664
-0.22923289 0.08163645 0.5411866 0.19122492 0.91392505
0.056501288 0.16313869 0.5450629 0.50961363 0.9621037
0.2616729 0.15662621 0.60901046 0.45097792 0.8884408
0.32722896 -0.038498715 0.6127145 0.50961363 0.79884505
0.2616729 0.15662621 0.60901046 0.9828737 0.3335901
0.08738151 0.04477592 -0.03887796 0.14205226 0.88137233
0.060281422 0.019952096 1.3574836 0.6810341 0.3279472
-0.45190218 0.017642628 0.7551741 0.41606927 0.01226764
0.112381265 0.004878964 -0.020039054 0.66980016 0.7988451
0.08738151 0.04477592 -0.03887796 0.6836847 0.81890136
0.01546506 0.08191559 -0.007779147 0.66980016 0.8616775
0.010510016 0.026633197 0.42204574 0.95439434 0.97310424
0.112381265 0.004878964 -0.020039054 0.8972961 0.75913507
0.01546506 0.08191559 -0.007779147 0.9505987 0.7799731
-0.011389118 0.030655691 0.55375415 0.12205442 0.8622708
0.06962604 0.059967786 0.5116499 0.079673894 0.87255687
0.010510016 0.026633197 0.42204574 0.079673894 0.81352633
-0.38351285 0.04194027 0.62193084 0.36283195 0.007530661
0.467233 0.019024251 0.85907084 0.3604521 0.25597805
0.01546506 0.08191559 -0.007779147 0.35319018 0.5845957
-0.053021707 0.043801785 -0.021358935 0.3244319 0.6091488
-0.011324967 0.01023676 0.36117506 0.28173953 0.42655018
0.010510016 0.026633197 0.42204574 0.2881226 0.393575
0.010510016 0.026633197 0.42204574 0.81302387 0.7591349
0.06962604 0.059967786 0.5116499 0.78667873 0.8099607
0.116041414 -0.048568003 0.5085422 0.74279606 0.7924907
-0.06450349 0.019851051 0.46463344 0.1950659 0.8135263
0.06395702 0.005028682 0.42234984 0.92569166 0.96954703
0.116041414 -0.048568003 0.5085422 0.897296 1.0000001
0.010510016 0.026633197 0.42204574 0.031526383 0.84105337
-0.0061014406 -0.005760504 0.48313138 0.064632066 0.8381735
-0.011389118 0.030655691 0.55375415 0.079673946 0.865823
-0.4438394 -0.11805858 0.8746488 0.51032954 -4.2035033e-09
0.44050476 -0.0951746 1.0220978 0.32204503 0.1662979
-0.011324967 0.01023676 0.36117506 0.25441372 0.81352633
-0.06450349 0.019851051 0.46463344 0.25441372 0.8717109
0.010510016 0.026633197 0.42204574 0.22884643 0.8369986
-0.07812956 -0.03391789 0.5162747 0.6644029 0.8309038
0.010510016 0.026633197 0.42204574 0.6698002 0.9057748
-0.06450349 0.019851051 0.46463344 0.6488768 0.8664902
0.32722896 -0.038498715 0.6127145 0.6860874 0.895012
0.056501288 0.16313869 0.5450629 0.8140791 0.8443148
-0.065104604 -0.09600503 0.57471836 0.84730446 0.5235093
-0.026980104 -0.027217718 0.4007346 0.79425734 0.5069909
-0.06450349 0.019851051 0.46463344 0.7903241 0.5450741
-0.011324967 0.01023676 0.36117506 0.77085143 0.5072205
-0.14973715 0.01514905 0.51533145 0.8218428 0.584519
-0.07812956 -0.03391789 0.5162747 0.079673946 0.8135263
0.08738151 0.04477592 -0.03887796 0.54724884 0.877203
0.0592764 -0.064589076 -0.061353244 0.54724884 0.818152
-0.0026895758 0.02452926 -0.059888497 0.58675814 0.8580236
-0.114948474 0.032372314 0.5343129 0.62354374 0.83033067
0.08738151 0.04477592 -0.03887796 0.031526316 0.90061516
0.112381265 0.004878964 -0.020039054 0.008955294 0.8919456
0.08461234 -0.08493315 -0.029945558 -3.0563857e-08 0.84455204
-0.07768526 -0.03508927 -0.023121856 0.28173953 0.61568123
0.0592764 -0.064589076 -0.061353244 0.023525584 0.8440348
0.03676902 -0.049672823 0.46377692 0.98497224 0.79794717
0.06395702 0.005028682 0.42234984 0.9543944 0.81872606
0.116041414 -0.048568003 0.5085422 0.9606432 0.75913507
0.0049063372 -0.047735233 0.46363673 0.28173953 0.82429016
-0.0061014406 -0.005760504 0.48313138 0.3000813 0.8386758
-0.07812956 -0.03391789 0.5162747 0.28173953 0.87616867
-0.07768526 -0.03508927 -0.023121856 0.62354374 0.8195746
-0.053021707 0.043801785 -0.021358935 0.6192334 0.8627136
0.112381265 0.004878964 -0.020039054 0.9543944 0.989324
-0.13014625 -0.08014319 0.52904665 0.6698002 0.79884505
-0.13014625 -0.08014319 0.52904665 0.3287848 0.715302
-0.011324967 0.01023676 0.36117506 0.84177166 0.75913495
-0.07768526 -0.03508927 -0.023121856 0.89729595 0.9429549
-0.023676345 -0.09743778 -0.005662162 0.8545642 0.9399837
0.015973514 -0.057827093 0.32871005 0.7890045 0.47079518
-0.13014625 -0.08014319 0.52904665 0.8571336 0.54871106
-0.011389118 0.030655691 0.55375415 0.4372673 0.7988451
-0.0061014406 -0.005760504 0.48313138 0.42969915 0.83388984
0.0049063372 -0.047735233 0.46363673 0.4144396 0.84317386
0.09873974 -0.16137806 1.3081362 0.11288198 0.055864137
-0.010095413 -0.08860876 -0.052862838 0.5805132 0.7988452
0.08461234 -0.08493315 -0.029945558 0.54724884 0.94493634
0.112381265 0.004878964 -0.020039054 0.5096137 0.9666269
0.015973514 -0.057827093 0.32871005 0.5096137 0.79884505
0.015973514 -0.057827093 0.32871005 0.9986332 0.8576518
-0.20306535 -0.18377265 0.5509588 0.92466855 0.548623
0.2556677 -0.12389151 1.2669277 0.18148471 0.09164131
0.015973514 -0.057827093 0.32871005 0.8140791 0.7775136
0.03676902 -0.049672823 0.46377692 0.399926 0.846584
-0.026980104 -0.027217718 0.4007346 0.4386392 0.8727078
-0.07812956 -0.03391789 0.5162747 0.45097792 0.80758107
0.116041414 -0.048568003 0.5085422 0.36234006 0.8326242
0.033470012 -0.06376577 0.5338508 0.3924411 0.80973333
-0.39089727 -0.12629245 0.6477028 0.9643891 0.65474755
-0.45190218 0.017642628 0.7551741 0.9297593 0.7381394
-0.4438394 -0.11805858 0.8746488 0.6742282 0.70586044
-0.45190218 0.017642628 0.7551741 0.6579933 0.7875039
-0.39089727 -0.12629245 0.6477028 0.5770979 0.7796575
0.3899968 -0.20339678 0.8199354 0.8095718 0.19291365
0.44050476 -0.0951746 1.0220978 0.72540444 0.25045568
0.3632555 -0.14308445 1.1582327 0.25967786 0.11094986
0.015973514 -0.057827093 0.32871005 0.41630486 0.9129557
-0.13014625 -0.08014319 0.52904665 0.2746941 0.81352633
-0.026980104 -0.027217718 0.4007346 0.2746941 0.87449324
-0.07812956 -0.03391789 0.5162747 0.25441366 0.84176224
-0.2962929 -0.11073592 0.54752916 0.9219123 0.6084839
0.06339392 -0.1252019 0.5562049 0.36045206 0.7988451
0.06339392 -0.1252019 0.5562049 0.81924343 0.46025795
0.2740837 -0.23871887 0.67590654 0.89864343 0.15163097
-0.38085058 -0.16990061 1.0042343 0.5824792 0.035615657
-0.010095413 -0.08860876 -0.052862838 0.031526316 0.8135263
-0.010095413 -0.08860876 -0.052862838 0.8561285 0.9660016
0.033470012 -0.06376577 0.5338508 0.22884639 0.81352633
0.116041414 -0.048568003 0.5085422 0.22042121 0.85882384
0.06339392 -0.1252019 0.5562049 0.19506599 0.81352633
0.08461234 -0.08493315 -0.029945558 0.8140791 0.96778476
-0.06581502 -0.16775154 1.298358 0.71661705 0.21040091
-0.06581502 -0.16775154 1.298358 0.050659075 0.04496704
-0.07401917 -0.2632446 0.62797886 0.92448646 0.48189393
0.12717868 -0.21802433 0.5836436 0.84102523 0.40920618
-0.20306535 -0.18377265 0.5509588 0.35322672 0.65339226
-0.40417767 -0.19815782 0.77303064 0.6130628 0.7164763
-0.2962929 -0.11073592 0.54752916 0.51045257 0.79884505
-0.3057646 -0.27404568 0.728118 0.54950905 0.6909775
-0.26290128 -0.26819012 1.0539331 0.6458006 0.052293185
-0.20243335 -0.1828828 1.2098634 0.6781818 0.13988301
0.32722896 -0.038498715 0.6127145 0.7063744 0.38837856
0.06339392 -0.1252019 0.5562049 0.7032206 0.7591349
-0.20306535 -0.18377265 0.5509588 0.4654726 0.75635093
0.34722257 -0.28997877 0.996895 0.3255603 0.07218419
0.12325242 -0.32468903 0.6670478 0.89323395 0.3883786
-0.36733618 -0.25978997 0.8932739 0.6300981 0.64508706
-0.07401917 -0.2632446 0.62797886 0.2817396 0.6156813
-0.38085058 -0.16990061 1.0042343 0.6860874 0.6265484
0.12717868 -0.21802433 0.5836436 0.9828737 0.12740332
0.34722257 -0.28997877 0.996895 0.73725396 0.13780352
-0.09359819 -0.29880422 1.2014904 0.7254046 0.13287024
0.14442453 -0.3302024 1.1742859 0.199381 0.0046441336
-0.07401917 -0.2632446 0.62797886 0.4307294 0.6743421
0.12325242 -0.32468903 0.6670478 0.93520665 0.07488229
-0.09359819 -0.29880422 1.2014904 0.090327 4.1424641e-10
-0.26290128 -0.26819012 1.0539331 0.64347374 0.5535484
-0.20243335 -0.1828828 1.2098634 0.6860874 0.497539
-0.1759997 -0.36691558 1.023375 0.58555 0.51982224
-0.18665585 -0.3657965 0.89511174 0.54675174 0.5731764
-0.09359819 -0.29880422 1.2014904 0.6247406 0.44541317
-0.039933786 -0.35029465 0.69518846 0.95569175 0.4497685
-0.039933786 -0.35029465 0.69518846 0.42714408 0.61836624
0.2520729 -0.36896485 0.8572866 0.8125458 0.081269234
-0.030762617 -0.41520795 1.0209515 0.52289546 0.47243795
0.14442453 -0.3302024 1.1742859 0.5215819 0.3883785
0.1554917 -0.40205947 1.0305362 0.7647508 0.03781986
0.040173758 -0.4319513 0.85467184 0.86756545 -6.3322165e-09
0.1554917 -0.40205947 1.0305362 0.45828557 0.42475867
0.040173758 -0.4319513 0.85467184 0.43803817 0.51580393
0.2520729 -0.36896485 0.8572866 0.369104 0.47637814
0.1554917 -0.40205947 1.0305362 0.25806645 -1.6564927e-08
0.12325242 -0.32468903 0.6670478 0.36045212 0.59433794
3 0 1 2
3 0 3 4
3 3 0 2
3 2 1 5
3 6 2 5
3 3 2 6
3 0 7 1
3 7 0 8
3 0 4 8
3 9 10 11
3 12 13 14
3 9 11 15
3 16 14 13
3 17 18 1
3 17 1 7
3 19 1 18
3 20 12 21
3 13 22 16
3 20 21 23
3 9 24 25
3 26 17 7
3 5 1 19
3 25 27 9
3 28 7 8
3 13 12 20
3 7 28 26
3 5 19 29
3 15 24 9
3 19 18 30
3 15 11 31
3 29 19 32
3 17 33 18
3 25 24 34
3 32 19 30
3 25 35 27
3 36 23 37
3 26 33 17
3 20 23 36
3 34 24 15
3 38 39 40
3 37 41 42
3 42 36 37
3 43 38 44
3 45 32 30
3 28 8 46
3 39 38 43
3 47 13 20
3 34 48 25
3 40 49 50
3 51 52 53
3 13 47 22
3 15 54 34
3 34 55 48
3 56 43 44
3 40 39 49
3 35 25 48
3 31 57 15
3 34 54 55
3 58 59 60
3 47 20 61
3 47 61 22
3 15 57 54
3 43 62 39
3 63 56 44
3 64 65 66
3 52 51 67
3 68 36 42
3 69 70 71
3 72 73 74
3 75 76 77
3 67 78 52
3 36 68 20
3 70 69 79
3 22 61 80
3 81 68 42
3 82 83 84
3 85 86 87
3 88 89 90
3 81 42 91
3 35 48 92
3 93 94 95
3 96 93 95
3 97 98 99
3 72 100 73
3 101 85 102
3 103 104 105
3 106 68 81
3 48 107 92
3 108 109 110
3 111 112 113
3 114 99 98
3 115 114 98
3 43 56 116
3 101 86 85
3 117 118 119
3 117 120 118
3 121 104 103
3 122 123 124
3 113 125 111
3 126 127 128
3 94 129 95
3 20 68 61
3 128 130 126
3 131 132 133
3 134 135 136
3 137 138 124
3 132 131 139
3 111 125 140
3 64 141 65
3 107 48 55
3 54 107 55
3 142 143 144
3 117 119 145
3 146 120 117
3 147 148 149
3 54 57 150
3 151 124 123
3 152 153 154
3 155 139 131
3 156 39 120
3 54 150 157
3 137 124 151
3 142 144 158
3 159 149 160
3 147 149 159
3 160 149 161
3 162 163 159
3 159 163 147
3 164 165 49
3 166 167 168
3 169 51 170
3 107 54 171
3 159 160 172
3 173 174 175
3 49 39 176
3 163 177 147
3 56 178 116
3 179 67 169
3 169 67 51
3 180 61 68
3 157 171 54
3 128 181 130
3 144 143 182
3 156 120 146
3 176 39 156
3 183 184 185
3 164 49 176
3 186 144 182
3 158 144 186
3 106 180 68
3 61 187 80
3 150 57 188
3 189 116 178
3 190 189 178
3 64 191 141
3 166 168 192
3 168 193 194
3 61 195 196
3 190 178 197
3 99 114 198
3 194 193 199
3 187 61 196
3 180 195 61
3 171 157 200
3 189 190 201
3 202 166 192
3 107 171 200
3 64 203 191
3 192 168 194
3 166 202 204
3 67 179 205
3 206 169 170
3 187 196 207
3 208 200 157
3 194 199 209
3 205 179 210
3 150 208 157
3 150 188 211
3 204 202 212
3 194 202 192
3 213 212 214
3 215 212 202
3 211 208 150
3 214 216 213
3 202 194 215
3 217 189 201
3 209 218 194
3 214 212 215
3 169 206 219
3 214 220 216
3 194 218 215
3 169 219 179
3 210 179 219
3 216 220 221
3 219 206 222
3 210 219 223
3 224 225 226
3 208 227 200
3 225 218 228
3 215 218 225
3 214 215 220
3 224 221 220
3 215 225 220
3 224 220 225
